<?xml version="1.0" encoding="utf-8"?>
<!-- Generator: Adobe Illustrator 26.0.0, SVG Export Plug-In . SVG Version: 6.00 Build 0)  -->
<svg version="1.1" id="Capa_1" xmlns="http://www.w3.org/2000/svg" xmlns:xlink="http://www.w3.org/1999/xlink" x="0px" y="0px"
	 viewBox="0 0 24 24" style="enable-background:new 0 0 24 24;" xml:space="preserve">
<style type="text/css">
	.st0{fill:#631D76;}
</style>
<path class="st0" d="M21,11.6V11h1V8h-1V6c0-2.2-1.8-4-4-4H7C4.8,2,3,3.8,3,6v2H2v3h1v0.6c-0.6,0.7-1,1.7-1,2.6L2,18
	c0,0.7,0.4,1.4,1,1.7V21c0,0.6,0.4,1,1,1h1c0.6,0,1-0.4,1-1v-1h12v1c0,0.6,0.4,1,1,1h1c0.6,0,1-0.4,1-1v-1.3
	c0.2-0.1,0.3-0.2,0.4-0.3C21.8,19,22,18.5,22,18l0-3.8C22,13.3,21.6,12.3,21,11.6z M8,4h8v2H8V4z M6.5,17C5.7,17,5,16.3,5,15.5
	S5.7,14,6.5,14C7.3,14,8,14.7,8,15.5C8,16.3,7.3,17,6.5,17z M11,12H5V8h6V12z M17.5,17c-0.8,0-1.5-0.7-1.5-1.5
	c0-0.8,0.7-1.5,1.5-1.5s1.5,0.7,1.5,1.5S18.3,17,17.5,17z M19,12h-6V8h6V12z"/>
</svg>
